<svg xmlns="http://www.w3.org/2000/svg" viewBox="0 0 80 80" id="coat"><path d="M13.23 35.042a1 1 0 0 0-.475.852v34.408a1 1 0 0 0 .737.965l13.242 3.61a3.484 3.484 0 0 0 3.045-.608l9.395-7.307a1.467 1.467 0 0 1 1.748-.044l10.645 7.451a3.445 3.445 0 0 0 2.99.483l11.975-3.592a1 1 0 0 0 .713-.958V35.894a1 1 0 0 0-.475-.852c-4.36-2.683-7.07-7.882-7.07-13.57 0-2.503.51-4.897 1.517-7.116a2.294 2.294 0 0 0-.014-1.934 2.279 2.279 0 0 0-1.448-1.229L40.302 5.047a.995.995 0 0 0-.604 0L20.29 11.18a2.298 2.298 0 0 0-1.507 3.176c1.007 2.218 1.518 4.612 1.518 7.115 0 5.688-2.71 10.887-7.07 13.57zm46.165-21.765c.027.057.05.148 0 .253-1.124 2.48-1.695 5.153-1.695 7.942 0 6.17 2.877 11.85 7.545 14.968v33.118l-11.263 3.378a1.449 1.449 0 0 1-1.267-.205L42.068 65.28a3.452 3.452 0 0 0-4.123.105l-.882.686V33.95L49.68 10.106l9.516 3.006a.302.302 0 0 1 .2.165zM40 7.05l7.74 2.445-8.746 16.53L31.708 9.67 40 7.049zM22.3 21.472c0-2.79-.57-5.462-1.696-7.942a.291.291 0 0 1 .001-.253c.023-.048.079-.132.244-.177l8.94-2.825 8.017 17.996-2.626 4.963a1.002 1.002 0 0 0-.117.468v33.923l-6.511 5.065a1.48 1.48 0 0 1-1.292.258l-12.505-3.41V36.44c4.668-3.119 7.545-8.797 7.545-14.968z"></path><path d="M41.313 36.494H40a1 1 0 1 0 0 2h1.313a1 1 0 1 0 0-2zm0 6.562H40a1 1 0 1 0 0 2h1.313a1 1 0 1 0 0-2zm0 6.561H40a1 1 0 1 0 0 2h1.313a1 1 0 1 0 0-2zm0 6.562H40a1 1 0 1 0 0 2h1.313a1 1 0 1 0 0-2zm6.873-1.625a1 1 0 0 0 1 1h9.186a1 1 0 1 0 0-2h-9.186a1 1 0 0 0-1 1zm-27.87 1h9.186a1 1 0 1 0 0-2h-9.187a1 1 0 1 0 0 2z"></path></svg>