<svg xmlns="http://www.w3.org/2000/svg" viewBox="0 0 128 128" id="sewing-machine"><path d="M89 78a11 11 0 1 0-11-11 11.012 11.012 0 0 0 11 11Zm0-18a7 7 0 1 1-7 7 7.008 7.008 0 0 1 7-7Z"></path><path d="M12 90h4v2a2 2 0 0 0 4 0v-2h4v2a2 2 0 0 0 4 0v-2h4v2a2 2 0 0 0 4 0v-2h4v2a2 2 0 0 0 4 0v-2h4v2a2 2 0 0 0 4 0v-2h4v2a2 2 0 0 0 4 0v-2h4v2a2 2 0 0 0 4 0v-2h4v2a2 2 0 0 0 4 0v-2h4v2a2 2 0 0 0 4 0v-2h4v2a2 2 0 0 0 4 0v-2h4v2a2 2 0 0 0 4 0v-2h4v2a2 2 0 0 0 4 0v-2h8v6h4v-6a4.005 4.005 0 0 0-4-4h-6V50h4v8.467a6 6 0 1 0 12 0v-29a6 6 0 1 0-12 0V38h-4.028a13.693 13.693 0 0 0-5.078-10.242 21.324 21.324 0 0 0-7.974-3.915A4.89 4.89 0 0 0 97 23v-5a4.005 4.005 0 0 0-4-4h-4a4.005 4.005 0 0 0-4 4v5c0 .153.016.302.03.45a51.037 51.037 0 0 0-13.317 4.1 14.164 14.164 0 0 1-5.97 1.327H39.235a13.636 13.636 0 0 1-8.555-2.893 21.317 21.317 0 0 1-5.673-7.509A4.265 4.265 0 0 0 21.145 16H18v-2a2 2 0 0 0-4 0v2h-1.754A4.242 4.242 0 0 0 8 20.229V62a3.827 3.827 0 0 0 4 4h2v12a2 2 0 0 0 4 0V66h4a3.821 3.821 0 0 0 4-3.976c.065-5.41 2.018-8.978 5.968-10.906a11.255 11.255 0 0 1 4.976-1.07h23.971a6.958 6.958 0 0 1 6.985 6.914V86H12a4.005 4.005 0 0 0-4 4v6h4zm106-60.533a2 2 0 1 1 4 0v29a2 2 0 1 1-4 0zM114 46h-4v-4h4zM89 23v-5h4v5a.945.945 0 0 1-.034.167 30.03 30.03 0 0 0-3.952-.1C89.012 23.044 89 23.024 89 23zM49 46V32.877h4V46c0 .016.004.031.005.047h-4.01c0-.016.005-.03.005-.047zm-18.786 1.523C24.849 50.143 22.085 55.004 22 62H12V20.229a.238.238 0 0 1 .246-.229h8.899a.25.25 0 0 1 .229.147 25.39 25.39 0 0 0 6.798 8.953 17.648 17.648 0 0 0 11.064 3.777H45V46c0 .016.004.031.005.047h-8.061a15.213 15.213 0 0 0-6.73 1.476zm30.701-1.476h-3.92c0-.016.005-.03.005-.047V32.877h8.742a18.136 18.136 0 0 0 7.647-1.696c5.573-2.571 19.56-7.747 29.028-.282A9.695 9.695 0 0 1 106 38.492V86H71.9V56.962a10.963 10.963 0 0 0-10.985-10.915zM124 100H4a4.005 4.005 0 0 0-4 4v8a4.005 4.005 0 0 0 4 4h120a4.005 4.005 0 0 0 4-4v-8a4.005 4.005 0 0 0-4-4zM4 112v-8h120l.002 8z"></path><circle cx="16" cy="38" r="2"></circle><circle cx="91" cy="38" r="2"></circle></svg>